<mxfile host="Electron" agent="Mozilla/5.0 (Windows NT 10.0; Win64; x64) AppleWebKit/537.36 (KHTML, like Gecko) draw.io/26.1.1 Chrome/132.0.6834.210 Electron/34.3.3 Safari/537.36" version="26.1.1">
  <diagram name="Страница — 1" id="XD8mL1H3JGyR3cqBagfl">
    <mxGraphModel dx="5239" dy="3259" grid="1" gridSize="10" guides="1" tooltips="1" connect="1" arrows="1" fold="1" page="1" pageScale="1" pageWidth="827" pageHeight="1169" math="0" shadow="0">
      <root>
        <mxCell id="0" />
        <mxCell id="1" parent="0" />
        <mxCell id="vyuLjJ7TGY56v_wTqaDA-1" value="Товар" style="rounded=0;whiteSpace=wrap;html=1;" parent="1" vertex="1">
          <mxGeometry x="630" y="270" width="120" height="60" as="geometry" />
        </mxCell>
        <mxCell id="vyuLjJ7TGY56v_wTqaDA-2" value="&lt;div&gt;Поставщик&lt;/div&gt;" style="rounded=0;whiteSpace=wrap;html=1;" parent="1" vertex="1">
          <mxGeometry x="1320" y="145" width="120" height="60" as="geometry" />
        </mxCell>
        <mxCell id="vyuLjJ7TGY56v_wTqaDA-23" style="edgeStyle=elbowEdgeStyle;rounded=0;orthogonalLoop=1;jettySize=auto;html=1;endArrow=ERone;endFill=0;startArrow=ERmany;startFill=0;exitX=1;exitY=0.5;exitDx=0;exitDy=0;entryX=0;entryY=0.5;entryDx=0;entryDy=0;" parent="1" source="vyuLjJ7TGY56v_wTqaDA-1" target="vyuLjJ7TGY56v_wTqaDA-5" edge="1">
          <mxGeometry relative="1" as="geometry">
            <mxPoint x="590" y="440" as="targetPoint" />
          </mxGeometry>
        </mxCell>
        <mxCell id="vyuLjJ7TGY56v_wTqaDA-5" value="&lt;div&gt;Место_Хранения&lt;/div&gt;" style="shape=trapezoid;perimeter=trapezoidPerimeter;whiteSpace=wrap;html=1;fixedSize=1;" parent="1" vertex="1">
          <mxGeometry x="1310" y="485" width="140" height="70" as="geometry" />
        </mxCell>
        <mxCell id="vyuLjJ7TGY56v_wTqaDA-24" style="edgeStyle=elbowEdgeStyle;rounded=0;orthogonalLoop=1;jettySize=auto;html=1;endArrow=ERone;endFill=0;startArrow=ERmany;startFill=0;exitX=1;exitY=0.5;exitDx=0;exitDy=0;entryX=0;entryY=0.5;entryDx=0;entryDy=0;" parent="1" source="vyuLjJ7TGY56v_wTqaDA-1" target="vyuLjJ7TGY56v_wTqaDA-2" edge="1">
          <mxGeometry relative="1" as="geometry">
            <mxPoint x="380" y="170" as="sourcePoint" />
            <mxPoint x="630" y="140" as="targetPoint" />
          </mxGeometry>
        </mxCell>
        <mxCell id="vyuLjJ7TGY56v_wTqaDA-27" style="edgeStyle=elbowEdgeStyle;rounded=0;orthogonalLoop=1;jettySize=auto;html=1;entryX=0;entryY=0.5;entryDx=0;entryDy=0;endArrow=ERone;endFill=0;startArrow=ERmany;startFill=0;exitX=1;exitY=0.5;exitDx=0;exitDy=0;" parent="1" source="vyuLjJ7TGY56v_wTqaDA-9" target="vyuLjJ7TGY56v_wTqaDA-1" edge="1">
          <mxGeometry relative="1" as="geometry">
            <mxPoint x="880" y="465" as="sourcePoint" />
            <mxPoint x="560" y="350" as="targetPoint" />
            <Array as="points">
              <mxPoint x="370" y="350" />
            </Array>
          </mxGeometry>
        </mxCell>
        <mxCell id="vyuLjJ7TGY56v_wTqaDA-28" style="edgeStyle=elbowEdgeStyle;rounded=0;orthogonalLoop=1;jettySize=auto;html=1;entryX=0;entryY=0.5;entryDx=0;entryDy=0;endArrow=ERone;endFill=0;startArrow=ERmany;startFill=0;exitX=1;exitY=0.5;exitDx=0;exitDy=0;" parent="1" source="vyuLjJ7TGY56v_wTqaDA-16" target="vyuLjJ7TGY56v_wTqaDA-1" edge="1">
          <mxGeometry relative="1" as="geometry">
            <mxPoint x="890" y="475" as="sourcePoint" />
            <mxPoint x="570" y="360" as="targetPoint" />
            <Array as="points">
              <mxPoint x="370" y="220" />
            </Array>
          </mxGeometry>
        </mxCell>
        <mxCell id="vyuLjJ7TGY56v_wTqaDA-29" style="edgeStyle=elbowEdgeStyle;rounded=0;orthogonalLoop=1;jettySize=auto;html=1;entryX=1;entryY=0.5;entryDx=0;entryDy=0;endArrow=ERone;endFill=0;startArrow=ERmany;startFill=0;exitX=0;exitY=0.5;exitDx=0;exitDy=0;" parent="1" source="vyuLjJ7TGY56v_wTqaDA-7" target="vyuLjJ7TGY56v_wTqaDA-11" edge="1">
          <mxGeometry relative="1" as="geometry">
            <mxPoint x="-1050" y="480" as="sourcePoint" />
            <mxPoint x="-920" y="340" as="targetPoint" />
          </mxGeometry>
        </mxCell>
        <mxCell id="vyuLjJ7TGY56v_wTqaDA-30" style="edgeStyle=elbowEdgeStyle;rounded=0;orthogonalLoop=1;jettySize=auto;html=1;entryX=1;entryY=0.5;entryDx=0;entryDy=0;endArrow=ERone;endFill=0;startArrow=ERmany;startFill=0;exitX=0;exitY=0.5;exitDx=0;exitDy=0;" parent="1" source="vyuLjJ7TGY56v_wTqaDA-9" target="vyuLjJ7TGY56v_wTqaDA-7" edge="1">
          <mxGeometry relative="1" as="geometry">
            <mxPoint x="-490" y="500" as="sourcePoint" />
            <mxPoint x="-360" y="360" as="targetPoint" />
          </mxGeometry>
        </mxCell>
        <mxCell id="vyuLjJ7TGY56v_wTqaDA-32" style="edgeStyle=orthogonalEdgeStyle;rounded=0;orthogonalLoop=1;jettySize=auto;html=1;endArrow=ERone;endFill=0;startArrow=ERmany;startFill=0;exitX=0;exitY=0.5;exitDx=0;exitDy=0;entryX=1;entryY=0.5;entryDx=0;entryDy=0;elbow=vertical;jumpStyle=arc;" parent="1" source="vyuLjJ7TGY56v_wTqaDA-13" target="vyuLjJ7TGY56v_wTqaDA-7" edge="1">
          <mxGeometry relative="1" as="geometry">
            <mxPoint x="-980" y="280" as="sourcePoint" />
            <mxPoint x="-820" y="350" as="targetPoint" />
            <Array as="points">
              <mxPoint x="-400" y="125" />
              <mxPoint x="-400" y="180" />
              <mxPoint x="-100" y="180" />
              <mxPoint x="-100" y="377" />
            </Array>
          </mxGeometry>
        </mxCell>
        <mxCell id="vyuLjJ7TGY56v_wTqaDA-33" style="edgeStyle=elbowEdgeStyle;rounded=0;orthogonalLoop=1;jettySize=auto;html=1;entryX=1;entryY=0.5;entryDx=0;entryDy=0;endArrow=ERone;endFill=0;startArrow=ERmany;startFill=0;exitX=0;exitY=0.5;exitDx=0;exitDy=0;" parent="1" source="vyuLjJ7TGY56v_wTqaDA-16" target="vyuLjJ7TGY56v_wTqaDA-13" edge="1">
          <mxGeometry relative="1" as="geometry">
            <mxPoint x="-470" y="520" as="sourcePoint" />
            <mxPoint x="-340" y="380" as="targetPoint" />
          </mxGeometry>
        </mxCell>
        <mxCell id="vyuLjJ7TGY56v_wTqaDA-52" style="rounded=0;orthogonalLoop=1;jettySize=auto;html=1;entryX=0.25;entryY=0;entryDx=0;entryDy=0;" parent="1" source="vyuLjJ7TGY56v_wTqaDA-36" target="vyuLjJ7TGY56v_wTqaDA-1" edge="1">
          <mxGeometry relative="1" as="geometry" />
        </mxCell>
        <mxCell id="vyuLjJ7TGY56v_wTqaDA-36" value="&lt;div&gt;&lt;span class=&quot;text-sm px-1 rounded-sm !font-mono bg-orange-300/15 text-orange-500 dark:text-orange-300&quot;&gt;IDТовара&lt;/span&gt;&lt;/div&gt;" style="ellipse;whiteSpace=wrap;html=1;fontSize=14;" parent="1" vertex="1">
          <mxGeometry x="520" y="2.5" width="70" height="50" as="geometry" />
        </mxCell>
        <mxCell id="vyuLjJ7TGY56v_wTqaDA-38" value="&lt;div&gt;&lt;span class=&quot;text-sm px-1 rounded-sm !font-mono bg-orange-300/15 text-orange-500 dark:text-orange-300&quot;&gt;Артикул&lt;/span&gt;&lt;/div&gt;" style="ellipse;whiteSpace=wrap;html=1;fontSize=14;" parent="1" vertex="1">
          <mxGeometry x="700" y="2.5" width="70" height="50" as="geometry" />
        </mxCell>
        <mxCell id="vyuLjJ7TGY56v_wTqaDA-40" value="&lt;div&gt;&lt;span class=&quot;text-sm px-1 rounded-sm !font-mono bg-orange-300/15 text-orange-500 dark:text-orange-300&quot;&gt;Наименование&lt;/span&gt;&lt;/div&gt;" style="ellipse;whiteSpace=wrap;html=1;fontSize=14;" parent="1" vertex="1">
          <mxGeometry x="873" y="70" width="100" height="60" as="geometry" />
        </mxCell>
        <mxCell id="vyuLjJ7TGY56v_wTqaDA-41" value="&lt;div&gt;&lt;span class=&quot;text-sm px-1 rounded-sm !font-mono bg-orange-300/15 text-orange-500 dark:text-orange-300&quot;&gt;IDПоставщика&lt;/span&gt;&lt;/div&gt;" style="ellipse;whiteSpace=wrap;html=1;fontSize=14;" parent="1" vertex="1">
          <mxGeometry x="770" y="-5" width="103" height="65" as="geometry" />
        </mxCell>
        <mxCell id="vyuLjJ7TGY56v_wTqaDA-49" style="rounded=0;orthogonalLoop=1;jettySize=auto;html=1;" parent="1" source="vyuLjJ7TGY56v_wTqaDA-42" edge="1">
          <mxGeometry relative="1" as="geometry">
            <mxPoint x="640" y="270" as="targetPoint" />
          </mxGeometry>
        </mxCell>
        <mxCell id="vyuLjJ7TGY56v_wTqaDA-42" value="&lt;div&gt;&lt;span class=&quot;text-sm px-1 rounded-sm !font-mono bg-orange-300/15 text-orange-500 dark:text-orange-300&quot;&gt;IDМеста&lt;/span&gt;&lt;/div&gt;" style="ellipse;whiteSpace=wrap;html=1;fontSize=14;" parent="1" vertex="1">
          <mxGeometry x="390" y="170" width="70" height="57.5" as="geometry" />
        </mxCell>
        <mxCell id="vyuLjJ7TGY56v_wTqaDA-57" style="rounded=0;orthogonalLoop=1;jettySize=auto;html=1;entryX=0.75;entryY=0;entryDx=0;entryDy=0;" parent="1" source="vyuLjJ7TGY56v_wTqaDA-43" target="vyuLjJ7TGY56v_wTqaDA-1" edge="1">
          <mxGeometry relative="1" as="geometry" />
        </mxCell>
        <mxCell id="vyuLjJ7TGY56v_wTqaDA-43" value="&lt;div&gt;&lt;span class=&quot;text-sm px-1 rounded-sm !font-mono bg-orange-300/15 text-orange-500 dark:text-orange-300&quot;&gt;Цена За Единицу&lt;/span&gt;&lt;/div&gt;" style="ellipse;whiteSpace=wrap;html=1;fontSize=14;" parent="1" vertex="1">
          <mxGeometry x="920" y="130" width="100" height="60" as="geometry" />
        </mxCell>
        <mxCell id="vyuLjJ7TGY56v_wTqaDA-44" value="&lt;div&gt;&lt;span class=&quot;text-sm px-1 rounded-sm !font-mono bg-orange-300/15 text-orange-500 dark:text-orange-300&quot;&gt;Дата Поступления&lt;/span&gt;&lt;/div&gt;" style="ellipse;whiteSpace=wrap;html=1;fontSize=14;" parent="1" vertex="1">
          <mxGeometry x="430" y="33.75" width="100" height="60" as="geometry" />
        </mxCell>
        <mxCell id="vyuLjJ7TGY56v_wTqaDA-46" value="&lt;div&gt;&lt;span class=&quot;text-sm px-1 rounded-sm !font-mono bg-orange-300/15 text-orange-500 dark:text-orange-300&quot;&gt;Количество На Складе&lt;/span&gt;&lt;/div&gt;" style="ellipse;whiteSpace=wrap;html=1;fontSize=14;" parent="1" vertex="1">
          <mxGeometry x="390" y="93.75" width="110" height="70" as="geometry" />
        </mxCell>
        <mxCell id="vyuLjJ7TGY56v_wTqaDA-47" value="&lt;div&gt;&lt;span class=&quot;text-sm px-1 rounded-sm !font-mono bg-orange-300/15 text-orange-500 dark:text-orange-300&quot;&gt;Масса Единицы&lt;/span&gt;&lt;/div&gt;" style="ellipse;whiteSpace=wrap;html=1;fontSize=14;" parent="1" vertex="1">
          <mxGeometry x="590" width="100" height="60" as="geometry" />
        </mxCell>
        <mxCell id="vyuLjJ7TGY56v_wTqaDA-50" style="rounded=0;orthogonalLoop=1;jettySize=auto;html=1;entryX=0.142;entryY=-0.05;entryDx=0;entryDy=0;entryPerimeter=0;" parent="1" source="vyuLjJ7TGY56v_wTqaDA-46" target="vyuLjJ7TGY56v_wTqaDA-1" edge="1">
          <mxGeometry relative="1" as="geometry" />
        </mxCell>
        <mxCell id="vyuLjJ7TGY56v_wTqaDA-51" style="rounded=0;orthogonalLoop=1;jettySize=auto;html=1;entryX=0.192;entryY=-0.05;entryDx=0;entryDy=0;entryPerimeter=0;" parent="1" source="vyuLjJ7TGY56v_wTqaDA-44" target="vyuLjJ7TGY56v_wTqaDA-1" edge="1">
          <mxGeometry relative="1" as="geometry" />
        </mxCell>
        <mxCell id="vyuLjJ7TGY56v_wTqaDA-53" style="rounded=0;orthogonalLoop=1;jettySize=auto;html=1;entryX=0.333;entryY=-0.067;entryDx=0;entryDy=0;entryPerimeter=0;" parent="1" source="vyuLjJ7TGY56v_wTqaDA-47" target="vyuLjJ7TGY56v_wTqaDA-1" edge="1">
          <mxGeometry relative="1" as="geometry" />
        </mxCell>
        <mxCell id="vyuLjJ7TGY56v_wTqaDA-54" style="rounded=0;orthogonalLoop=1;jettySize=auto;html=1;entryX=0.433;entryY=-0.017;entryDx=0;entryDy=0;entryPerimeter=0;" parent="1" source="vyuLjJ7TGY56v_wTqaDA-38" target="vyuLjJ7TGY56v_wTqaDA-1" edge="1">
          <mxGeometry relative="1" as="geometry" />
        </mxCell>
        <mxCell id="vyuLjJ7TGY56v_wTqaDA-55" style="rounded=0;orthogonalLoop=1;jettySize=auto;html=1;entryX=0.575;entryY=-0.05;entryDx=0;entryDy=0;entryPerimeter=0;" parent="1" source="vyuLjJ7TGY56v_wTqaDA-41" target="vyuLjJ7TGY56v_wTqaDA-1" edge="1">
          <mxGeometry relative="1" as="geometry" />
        </mxCell>
        <mxCell id="vyuLjJ7TGY56v_wTqaDA-56" style="rounded=0;orthogonalLoop=1;jettySize=auto;html=1;entryX=0.658;entryY=-0.067;entryDx=0;entryDy=0;entryPerimeter=0;" parent="1" source="vyuLjJ7TGY56v_wTqaDA-40" target="vyuLjJ7TGY56v_wTqaDA-1" edge="1">
          <mxGeometry relative="1" as="geometry" />
        </mxCell>
        <mxCell id="vyuLjJ7TGY56v_wTqaDA-63" style="rounded=0;orthogonalLoop=1;jettySize=auto;html=1;entryX=0.25;entryY=0;entryDx=0;entryDy=0;" parent="1" source="vyuLjJ7TGY56v_wTqaDA-58" target="vyuLjJ7TGY56v_wTqaDA-5" edge="1">
          <mxGeometry relative="1" as="geometry" />
        </mxCell>
        <mxCell id="vyuLjJ7TGY56v_wTqaDA-58" value="&lt;div&gt;&lt;span class=&quot;text-sm px-1 rounded-sm !font-mono bg-orange-300/15 text-orange-500 dark:text-orange-300&quot;&gt;IDМеста&lt;/span&gt;&lt;/div&gt;" style="ellipse;whiteSpace=wrap;html=1;fontSize=14;" parent="1" vertex="1">
          <mxGeometry x="1210" y="385" width="70" height="57.5" as="geometry" />
        </mxCell>
        <mxCell id="vyuLjJ7TGY56v_wTqaDA-59" value="&lt;div&gt;&lt;span class=&quot;text-sm px-1 rounded-sm !font-mono bg-orange-300/15 text-orange-500 dark:text-orange-300&quot;&gt;Стеллаж&lt;/span&gt;&lt;/div&gt;" style="ellipse;whiteSpace=wrap;html=1;fontSize=14;" parent="1" vertex="1">
          <mxGeometry x="1370" y="327.5" width="70" height="57.5" as="geometry" />
        </mxCell>
        <mxCell id="vyuLjJ7TGY56v_wTqaDA-60" value="&lt;div&gt;&lt;span class=&quot;text-sm px-1 rounded-sm !font-mono bg-orange-300/15 text-orange-500 dark:text-orange-300&quot;&gt;Зона&lt;/span&gt;&lt;/div&gt;" style="ellipse;whiteSpace=wrap;html=1;fontSize=14;" parent="1" vertex="1">
          <mxGeometry x="1280" y="335" width="70" height="57.5" as="geometry" />
        </mxCell>
        <mxCell id="vyuLjJ7TGY56v_wTqaDA-66" style="rounded=0;orthogonalLoop=1;jettySize=auto;html=1;entryX=0.75;entryY=0;entryDx=0;entryDy=0;" parent="1" source="vyuLjJ7TGY56v_wTqaDA-62" target="vyuLjJ7TGY56v_wTqaDA-5" edge="1">
          <mxGeometry relative="1" as="geometry" />
        </mxCell>
        <mxCell id="vyuLjJ7TGY56v_wTqaDA-62" value="&lt;div&gt;&lt;span class=&quot;text-sm px-1 rounded-sm !font-mono bg-orange-300/15 text-orange-500 dark:text-orange-300&quot;&gt;Ячейка&lt;/span&gt;&lt;/div&gt;" style="ellipse;whiteSpace=wrap;html=1;fontSize=14;" parent="1" vertex="1">
          <mxGeometry x="1464" y="365" width="70" height="57.5" as="geometry" />
        </mxCell>
        <mxCell id="vyuLjJ7TGY56v_wTqaDA-64" style="rounded=0;orthogonalLoop=1;jettySize=auto;html=1;entryX=0.414;entryY=-0.043;entryDx=0;entryDy=0;entryPerimeter=0;" parent="1" source="vyuLjJ7TGY56v_wTqaDA-60" target="vyuLjJ7TGY56v_wTqaDA-5" edge="1">
          <mxGeometry relative="1" as="geometry" />
        </mxCell>
        <mxCell id="vyuLjJ7TGY56v_wTqaDA-65" style="rounded=0;orthogonalLoop=1;jettySize=auto;html=1;entryX=0.586;entryY=-0.014;entryDx=0;entryDy=0;entryPerimeter=0;" parent="1" source="vyuLjJ7TGY56v_wTqaDA-59" target="vyuLjJ7TGY56v_wTqaDA-5" edge="1">
          <mxGeometry relative="1" as="geometry" />
        </mxCell>
        <mxCell id="vyuLjJ7TGY56v_wTqaDA-67" value="&lt;div&gt;&lt;span class=&quot;text-sm px-1 rounded-sm !font-mono bg-orange-300/15 text-orange-500 dark:text-orange-300&quot;&gt;IDПоставщика&lt;/span&gt;&lt;/div&gt;" style="ellipse;whiteSpace=wrap;html=1;fontSize=14;" parent="1" vertex="1">
          <mxGeometry x="1140" y="10" width="103" height="65" as="geometry" />
        </mxCell>
        <mxCell id="vyuLjJ7TGY56v_wTqaDA-68" value="&lt;div&gt;&lt;span class=&quot;text-sm px-1 rounded-sm !font-mono bg-orange-300/15 text-orange-500 dark:text-orange-300&quot;&gt;ИНН&lt;/span&gt;&lt;/div&gt;" style="ellipse;whiteSpace=wrap;html=1;fontSize=14;" parent="1" vertex="1">
          <mxGeometry x="1230" y="-50" width="103" height="65" as="geometry" />
        </mxCell>
        <mxCell id="vyuLjJ7TGY56v_wTqaDA-74" style="rounded=0;orthogonalLoop=1;jettySize=auto;html=1;entryX=0.75;entryY=0;entryDx=0;entryDy=0;" parent="1" source="vyuLjJ7TGY56v_wTqaDA-69" target="vyuLjJ7TGY56v_wTqaDA-2" edge="1">
          <mxGeometry relative="1" as="geometry" />
        </mxCell>
        <mxCell id="vyuLjJ7TGY56v_wTqaDA-69" value="&lt;div&gt;&lt;span class=&quot;text-sm px-1 rounded-sm !font-mono bg-orange-300/15 text-orange-500 dark:text-orange-300&quot;&gt;Адрес&lt;/span&gt;&lt;/div&gt;" style="ellipse;whiteSpace=wrap;html=1;fontSize=14;" parent="1" vertex="1">
          <mxGeometry x="1500" y="10" width="103" height="65" as="geometry" />
        </mxCell>
        <mxCell id="vyuLjJ7TGY56v_wTqaDA-73" style="rounded=0;orthogonalLoop=1;jettySize=auto;html=1;entryX=0.583;entryY=-0.033;entryDx=0;entryDy=0;entryPerimeter=0;" parent="1" source="vyuLjJ7TGY56v_wTqaDA-70" target="vyuLjJ7TGY56v_wTqaDA-2" edge="1">
          <mxGeometry relative="1" as="geometry">
            <mxPoint x="1390" y="135" as="targetPoint" />
          </mxGeometry>
        </mxCell>
        <mxCell id="vyuLjJ7TGY56v_wTqaDA-70" value="&lt;div&gt;&lt;span class=&quot;text-sm px-1 rounded-sm !font-mono bg-orange-300/15 text-orange-500 dark:text-orange-300&quot;&gt;Название&lt;/span&gt;&lt;/div&gt;" style="ellipse;whiteSpace=wrap;html=1;fontSize=14;" parent="1" vertex="1">
          <mxGeometry x="1410" y="-45" width="103" height="65" as="geometry" />
        </mxCell>
        <mxCell id="vyuLjJ7TGY56v_wTqaDA-71" style="rounded=0;orthogonalLoop=1;jettySize=auto;html=1;entryX=0.367;entryY=-0.05;entryDx=0;entryDy=0;entryPerimeter=0;" parent="1" source="vyuLjJ7TGY56v_wTqaDA-68" target="vyuLjJ7TGY56v_wTqaDA-2" edge="1">
          <mxGeometry relative="1" as="geometry" />
        </mxCell>
        <mxCell id="vyuLjJ7TGY56v_wTqaDA-72" style="rounded=0;orthogonalLoop=1;jettySize=auto;html=1;entryX=0.183;entryY=-0.067;entryDx=0;entryDy=0;entryPerimeter=0;" parent="1" source="vyuLjJ7TGY56v_wTqaDA-67" target="vyuLjJ7TGY56v_wTqaDA-2" edge="1">
          <mxGeometry relative="1" as="geometry" />
        </mxCell>
        <mxCell id="vyuLjJ7TGY56v_wTqaDA-110" value="" style="group" parent="1" vertex="1" connectable="0">
          <mxGeometry x="-520" y="-160" width="500" height="315" as="geometry" />
        </mxCell>
        <mxCell id="vyuLjJ7TGY56v_wTqaDA-13" value="&lt;div&gt;Накладная&lt;/div&gt;" style="rounded=0;whiteSpace=wrap;html=1;" parent="vyuLjJ7TGY56v_wTqaDA-110" vertex="1">
          <mxGeometry x="190" y="255" width="120" height="60" as="geometry" />
        </mxCell>
        <mxCell id="vyuLjJ7TGY56v_wTqaDA-99" value="&lt;div&gt;&lt;span class=&quot;text-sm px-1 rounded-sm !font-mono bg-orange-300/15 text-orange-500 dark:text-orange-300&quot;&gt;IDНакладной&lt;/span&gt;&lt;/div&gt;" style="ellipse;whiteSpace=wrap;html=1;fontSize=14;" parent="vyuLjJ7TGY56v_wTqaDA-110" vertex="1">
          <mxGeometry x="20" y="170" width="90" height="36.87" as="geometry" />
        </mxCell>
        <mxCell id="vyuLjJ7TGY56v_wTqaDA-106" style="rounded=0;orthogonalLoop=1;jettySize=auto;html=1;entryX=0.25;entryY=0;entryDx=0;entryDy=0;" parent="vyuLjJ7TGY56v_wTqaDA-110" source="vyuLjJ7TGY56v_wTqaDA-100" target="vyuLjJ7TGY56v_wTqaDA-13" edge="1">
          <mxGeometry relative="1" as="geometry" />
        </mxCell>
        <mxCell id="vyuLjJ7TGY56v_wTqaDA-100" value="&lt;div&gt;&lt;span class=&quot;text-sm px-1 rounded-sm !font-mono bg-orange-300/15 text-orange-500 dark:text-orange-300&quot;&gt;Номер Документа&lt;/span&gt;&lt;/div&gt;" style="ellipse;whiteSpace=wrap;html=1;fontSize=14;" parent="vyuLjJ7TGY56v_wTqaDA-110" vertex="1">
          <mxGeometry x="90" y="80" width="80" height="52.5" as="geometry" />
        </mxCell>
        <mxCell id="vyuLjJ7TGY56v_wTqaDA-107" style="rounded=0;orthogonalLoop=1;jettySize=auto;html=1;entryX=0.5;entryY=0;entryDx=0;entryDy=0;" parent="vyuLjJ7TGY56v_wTqaDA-110" source="vyuLjJ7TGY56v_wTqaDA-101" target="vyuLjJ7TGY56v_wTqaDA-13" edge="1">
          <mxGeometry relative="1" as="geometry" />
        </mxCell>
        <mxCell id="vyuLjJ7TGY56v_wTqaDA-101" value="&lt;div&gt;&lt;span class=&quot;text-sm px-1 rounded-sm !font-mono bg-orange-300/15 text-orange-500 dark:text-orange-300&quot;&gt;Дата Составления&lt;/span&gt;&lt;/div&gt;" style="ellipse;whiteSpace=wrap;html=1;fontSize=14;" parent="vyuLjJ7TGY56v_wTqaDA-110" vertex="1">
          <mxGeometry x="210" y="30" width="90" height="60" as="geometry" />
        </mxCell>
        <mxCell id="vyuLjJ7TGY56v_wTqaDA-102" value="&lt;div&gt;&lt;span class=&quot;text-sm px-1 rounded-sm !font-mono bg-orange-300/15 text-orange-500 dark:text-orange-300&quot;&gt;IDЗаказа&lt;/span&gt;&lt;/div&gt;" style="ellipse;whiteSpace=wrap;html=1;fontSize=14;" parent="vyuLjJ7TGY56v_wTqaDA-110" vertex="1">
          <mxGeometry x="320" y="80" width="80" height="40" as="geometry" />
        </mxCell>
        <mxCell id="vyuLjJ7TGY56v_wTqaDA-103" value="&lt;div&gt;&lt;span class=&quot;text-sm px-1 rounded-sm !font-mono bg-orange-300/15 text-orange-500 dark:text-orange-300&quot;&gt;Статус Накладной&lt;/span&gt;&lt;/div&gt;" style="ellipse;whiteSpace=wrap;html=1;fontSize=14;" parent="vyuLjJ7TGY56v_wTqaDA-110" vertex="1">
          <mxGeometry x="390" y="150" width="80" height="56.87" as="geometry" />
        </mxCell>
        <mxCell id="vyuLjJ7TGY56v_wTqaDA-105" style="rounded=0;orthogonalLoop=1;jettySize=auto;html=1;entryX=0.106;entryY=-0.032;entryDx=0;entryDy=0;entryPerimeter=0;" parent="vyuLjJ7TGY56v_wTqaDA-110" source="vyuLjJ7TGY56v_wTqaDA-99" target="vyuLjJ7TGY56v_wTqaDA-13" edge="1">
          <mxGeometry relative="1" as="geometry" />
        </mxCell>
        <mxCell id="vyuLjJ7TGY56v_wTqaDA-108" style="rounded=0;orthogonalLoop=1;jettySize=auto;html=1;entryX=0.825;entryY=0.039;entryDx=0;entryDy=0;entryPerimeter=0;" parent="vyuLjJ7TGY56v_wTqaDA-110" source="vyuLjJ7TGY56v_wTqaDA-103" target="vyuLjJ7TGY56v_wTqaDA-13" edge="1">
          <mxGeometry relative="1" as="geometry" />
        </mxCell>
        <mxCell id="vyuLjJ7TGY56v_wTqaDA-109" style="rounded=0;orthogonalLoop=1;jettySize=auto;html=1;entryX=0.649;entryY=0.021;entryDx=0;entryDy=0;entryPerimeter=0;" parent="vyuLjJ7TGY56v_wTqaDA-110" source="vyuLjJ7TGY56v_wTqaDA-102" target="vyuLjJ7TGY56v_wTqaDA-13" edge="1">
          <mxGeometry relative="1" as="geometry" />
        </mxCell>
        <mxCell id="vyuLjJ7TGY56v_wTqaDA-111" value="" style="group" parent="1" vertex="1" connectable="0">
          <mxGeometry x="-66" y="-77.5" width="480" height="247.5" as="geometry" />
        </mxCell>
        <mxCell id="vyuLjJ7TGY56v_wTqaDA-16" value="&lt;div&gt;Детали_Накладной&lt;/div&gt;" style="rhombus;whiteSpace=wrap;html=1;" parent="vyuLjJ7TGY56v_wTqaDA-111" vertex="1">
          <mxGeometry x="170" y="157.5" width="140" height="90" as="geometry" />
        </mxCell>
        <mxCell id="vyuLjJ7TGY56v_wTqaDA-98" style="rounded=0;orthogonalLoop=1;jettySize=auto;html=1;entryX=0;entryY=0;entryDx=0;entryDy=0;" parent="vyuLjJ7TGY56v_wTqaDA-111" source="vyuLjJ7TGY56v_wTqaDA-91" target="vyuLjJ7TGY56v_wTqaDA-16" edge="1">
          <mxGeometry relative="1" as="geometry" />
        </mxCell>
        <mxCell id="vyuLjJ7TGY56v_wTqaDA-91" value="&lt;div&gt;&lt;span class=&quot;text-sm px-1 rounded-sm !font-mono bg-orange-300/15 text-orange-500 dark:text-orange-300&quot;&gt;IDДетали&lt;/span&gt;&lt;/div&gt;" style="ellipse;whiteSpace=wrap;html=1;fontSize=14;" parent="vyuLjJ7TGY56v_wTqaDA-111" vertex="1">
          <mxGeometry x="30" y="80" width="80" height="50" as="geometry" />
        </mxCell>
        <mxCell id="vyuLjJ7TGY56v_wTqaDA-92" value="&lt;div&gt;&lt;span class=&quot;text-sm px-1 rounded-sm !font-mono bg-orange-300/15 text-orange-500 dark:text-orange-300&quot;&gt;IDНакладной&lt;/span&gt;&lt;/div&gt;" style="ellipse;whiteSpace=wrap;html=1;fontSize=14;" parent="vyuLjJ7TGY56v_wTqaDA-111" vertex="1">
          <mxGeometry x="100" y="20" width="90" height="50" as="geometry" />
        </mxCell>
        <mxCell id="vyuLjJ7TGY56v_wTqaDA-93" value="&lt;div&gt;&lt;span class=&quot;text-sm px-1 rounded-sm !font-mono bg-orange-300/15 text-orange-500 dark:text-orange-300&quot;&gt;IDТовара&lt;/span&gt;&lt;/div&gt;" style="ellipse;whiteSpace=wrap;html=1;fontSize=14;" parent="vyuLjJ7TGY56v_wTqaDA-111" vertex="1">
          <mxGeometry x="250" y="20" width="80" height="52.5" as="geometry" />
        </mxCell>
        <mxCell id="vyuLjJ7TGY56v_wTqaDA-95" style="rounded=0;orthogonalLoop=1;jettySize=auto;html=1;entryX=1;entryY=0;entryDx=0;entryDy=0;" parent="vyuLjJ7TGY56v_wTqaDA-111" source="vyuLjJ7TGY56v_wTqaDA-94" target="vyuLjJ7TGY56v_wTqaDA-16" edge="1">
          <mxGeometry relative="1" as="geometry" />
        </mxCell>
        <mxCell id="vyuLjJ7TGY56v_wTqaDA-94" value="&lt;div&gt;&lt;span class=&quot;text-sm px-1 rounded-sm !font-mono bg-orange-300/15 text-orange-500 dark:text-orange-300&quot;&gt;Количество&lt;/span&gt;&lt;/div&gt;" style="ellipse;whiteSpace=wrap;html=1;fontSize=14;" parent="vyuLjJ7TGY56v_wTqaDA-111" vertex="1">
          <mxGeometry x="340" y="57.5" width="80" height="62.5" as="geometry" />
        </mxCell>
        <mxCell id="vyuLjJ7TGY56v_wTqaDA-96" style="rounded=0;orthogonalLoop=1;jettySize=auto;html=1;entryX=0.579;entryY=0.046;entryDx=0;entryDy=0;entryPerimeter=0;" parent="vyuLjJ7TGY56v_wTqaDA-111" source="vyuLjJ7TGY56v_wTqaDA-93" target="vyuLjJ7TGY56v_wTqaDA-16" edge="1">
          <mxGeometry relative="1" as="geometry" />
        </mxCell>
        <mxCell id="vyuLjJ7TGY56v_wTqaDA-97" style="rounded=0;orthogonalLoop=1;jettySize=auto;html=1;entryX=0.4;entryY=0.046;entryDx=0;entryDy=0;entryPerimeter=0;" parent="vyuLjJ7TGY56v_wTqaDA-111" source="vyuLjJ7TGY56v_wTqaDA-92" target="vyuLjJ7TGY56v_wTqaDA-16" edge="1">
          <mxGeometry relative="1" as="geometry" />
        </mxCell>
        <mxCell id="vyuLjJ7TGY56v_wTqaDA-122" value="" style="group" parent="1" vertex="1" connectable="0">
          <mxGeometry x="20" y="210" width="330" height="207.5" as="geometry" />
        </mxCell>
        <mxCell id="vyuLjJ7TGY56v_wTqaDA-9" value="&lt;div&gt;Детали_Заказа&lt;/div&gt;" style="rhombus;whiteSpace=wrap;html=1;" parent="vyuLjJ7TGY56v_wTqaDA-122" vertex="1">
          <mxGeometry x="100" y="127.5" width="120" height="80" as="geometry" />
        </mxCell>
        <mxCell id="vyuLjJ7TGY56v_wTqaDA-112" value="&lt;div&gt;&lt;span class=&quot;text-sm px-1 rounded-sm !font-mono bg-orange-300/15 text-orange-500 dark:text-orange-300&quot;&gt;IDЗаказа&lt;/span&gt;&lt;/div&gt;" style="ellipse;whiteSpace=wrap;html=1;fontSize=14;" parent="vyuLjJ7TGY56v_wTqaDA-122" vertex="1">
          <mxGeometry x="40" y="20" width="70" height="45" as="geometry" />
        </mxCell>
        <mxCell id="vyuLjJ7TGY56v_wTqaDA-113" value="&lt;div&gt;&lt;span class=&quot;text-sm px-1 rounded-sm !font-mono bg-orange-300/15 text-orange-500 dark:text-orange-300&quot;&gt;IDДетали&lt;/span&gt;&lt;/div&gt;" style="ellipse;whiteSpace=wrap;html=1;fontSize=14;" parent="vyuLjJ7TGY56v_wTqaDA-122" vertex="1">
          <mxGeometry y="65" width="70" height="40" as="geometry" />
        </mxCell>
        <mxCell id="vyuLjJ7TGY56v_wTqaDA-119" style="rounded=0;orthogonalLoop=1;jettySize=auto;html=1;entryX=0.5;entryY=0;entryDx=0;entryDy=0;" parent="vyuLjJ7TGY56v_wTqaDA-122" source="vyuLjJ7TGY56v_wTqaDA-114" target="vyuLjJ7TGY56v_wTqaDA-9" edge="1">
          <mxGeometry relative="1" as="geometry" />
        </mxCell>
        <mxCell id="vyuLjJ7TGY56v_wTqaDA-114" value="&lt;div&gt;&lt;span class=&quot;text-sm px-1 rounded-sm !font-mono bg-orange-300/15 text-orange-500 dark:text-orange-300&quot;&gt;IDТовара&lt;/span&gt;&lt;/div&gt;" style="ellipse;whiteSpace=wrap;html=1;fontSize=14;" parent="vyuLjJ7TGY56v_wTqaDA-122" vertex="1">
          <mxGeometry x="110" width="80" height="42.5" as="geometry" />
        </mxCell>
        <mxCell id="vyuLjJ7TGY56v_wTqaDA-115" value="&lt;div&gt;&lt;span class=&quot;text-sm px-1 rounded-sm !font-mono bg-orange-300/15 text-orange-500 dark:text-orange-300&quot;&gt;Количество&lt;/span&gt;&lt;/div&gt;" style="ellipse;whiteSpace=wrap;html=1;fontSize=14;" parent="vyuLjJ7TGY56v_wTqaDA-122" vertex="1">
          <mxGeometry x="190" y="20" width="80" height="47.5" as="geometry" />
        </mxCell>
        <mxCell id="vyuLjJ7TGY56v_wTqaDA-116" value="&lt;div&gt;&lt;span class=&quot;text-sm px-1 rounded-sm !font-mono bg-orange-300/15 text-orange-500 dark:text-orange-300&quot;&gt;Цена За Единицу&lt;/span&gt;&lt;/div&gt;" style="ellipse;whiteSpace=wrap;html=1;fontSize=14;" parent="vyuLjJ7TGY56v_wTqaDA-122" vertex="1">
          <mxGeometry x="240" y="70" width="90" height="50" as="geometry" />
        </mxCell>
        <mxCell id="vyuLjJ7TGY56v_wTqaDA-117" style="rounded=0;orthogonalLoop=1;jettySize=auto;html=1;entryX=0.82;entryY=0.254;entryDx=0;entryDy=0;entryPerimeter=0;" parent="vyuLjJ7TGY56v_wTqaDA-122" source="vyuLjJ7TGY56v_wTqaDA-116" target="vyuLjJ7TGY56v_wTqaDA-9" edge="1">
          <mxGeometry relative="1" as="geometry" />
        </mxCell>
        <mxCell id="vyuLjJ7TGY56v_wTqaDA-118" style="rounded=0;orthogonalLoop=1;jettySize=auto;html=1;entryX=0.644;entryY=0.13;entryDx=0;entryDy=0;entryPerimeter=0;" parent="vyuLjJ7TGY56v_wTqaDA-122" source="vyuLjJ7TGY56v_wTqaDA-115" target="vyuLjJ7TGY56v_wTqaDA-9" edge="1">
          <mxGeometry relative="1" as="geometry" />
        </mxCell>
        <mxCell id="vyuLjJ7TGY56v_wTqaDA-120" style="rounded=0;orthogonalLoop=1;jettySize=auto;html=1;entryX=0.294;entryY=0.168;entryDx=0;entryDy=0;entryPerimeter=0;" parent="vyuLjJ7TGY56v_wTqaDA-122" source="vyuLjJ7TGY56v_wTqaDA-113" target="vyuLjJ7TGY56v_wTqaDA-9" edge="1">
          <mxGeometry relative="1" as="geometry" />
        </mxCell>
        <mxCell id="vyuLjJ7TGY56v_wTqaDA-121" style="rounded=0;orthogonalLoop=1;jettySize=auto;html=1;entryX=0.392;entryY=0.085;entryDx=0;entryDy=0;entryPerimeter=0;" parent="vyuLjJ7TGY56v_wTqaDA-122" source="vyuLjJ7TGY56v_wTqaDA-112" target="vyuLjJ7TGY56v_wTqaDA-9" edge="1">
          <mxGeometry relative="1" as="geometry" />
        </mxCell>
        <mxCell id="vyuLjJ7TGY56v_wTqaDA-136" value="" style="group" parent="1" vertex="1" connectable="0">
          <mxGeometry x="-610" y="210" width="337" height="195" as="geometry" />
        </mxCell>
        <mxCell id="vyuLjJ7TGY56v_wTqaDA-7" value="&lt;div&gt;Заказ&lt;/div&gt;" style="rounded=0;whiteSpace=wrap;html=1;" parent="vyuLjJ7TGY56v_wTqaDA-136" vertex="1">
          <mxGeometry x="110" y="140" width="120" height="55" as="geometry" />
        </mxCell>
        <mxCell id="vyuLjJ7TGY56v_wTqaDA-123" value="&lt;div&gt;&lt;span class=&quot;text-sm px-1 rounded-sm !font-mono bg-orange-300/15 text-orange-500 dark:text-orange-300&quot;&gt;IDЗаказа&lt;/span&gt;&lt;/div&gt;" style="ellipse;whiteSpace=wrap;html=1;fontSize=14;" parent="vyuLjJ7TGY56v_wTqaDA-136" vertex="1">
          <mxGeometry y="72.5" width="70" height="30" as="geometry" />
        </mxCell>
        <mxCell id="vyuLjJ7TGY56v_wTqaDA-134" style="rounded=0;orthogonalLoop=1;jettySize=auto;html=1;entryX=0.25;entryY=0;entryDx=0;entryDy=0;" parent="vyuLjJ7TGY56v_wTqaDA-136" source="vyuLjJ7TGY56v_wTqaDA-124" target="vyuLjJ7TGY56v_wTqaDA-7" edge="1">
          <mxGeometry relative="1" as="geometry" />
        </mxCell>
        <mxCell id="vyuLjJ7TGY56v_wTqaDA-124" value="&lt;div&gt;&lt;span class=&quot;text-sm px-1 rounded-sm !font-mono bg-orange-300/15 text-orange-500 dark:text-orange-300&quot;&gt;Номер Заказа&lt;/span&gt;&lt;/div&gt;" style="ellipse;whiteSpace=wrap;html=1;fontSize=14;" parent="vyuLjJ7TGY56v_wTqaDA-136" vertex="1">
          <mxGeometry x="30" y="37.5" width="80" height="35" as="geometry" />
        </mxCell>
        <mxCell id="vyuLjJ7TGY56v_wTqaDA-125" value="&lt;div&gt;&lt;span class=&quot;text-sm px-1 rounded-sm !font-mono bg-orange-300/15 text-orange-500 dark:text-orange-300&quot;&gt;Дата Оформления&lt;/span&gt;&lt;/div&gt;" style="ellipse;whiteSpace=wrap;html=1;fontSize=14;" parent="vyuLjJ7TGY56v_wTqaDA-136" vertex="1">
          <mxGeometry x="70" width="107" height="40" as="geometry" />
        </mxCell>
        <mxCell id="vyuLjJ7TGY56v_wTqaDA-132" style="rounded=0;orthogonalLoop=1;jettySize=auto;html=1;entryX=0.5;entryY=0;entryDx=0;entryDy=0;" parent="vyuLjJ7TGY56v_wTqaDA-136" source="vyuLjJ7TGY56v_wTqaDA-126" target="vyuLjJ7TGY56v_wTqaDA-7" edge="1">
          <mxGeometry relative="1" as="geometry" />
        </mxCell>
        <mxCell id="vyuLjJ7TGY56v_wTqaDA-126" value="&lt;div&gt;&lt;span class=&quot;text-sm px-1 rounded-sm !font-mono bg-orange-300/15 text-orange-500 dark:text-orange-300&quot;&gt;IDЗаказчика&lt;/span&gt;&lt;/div&gt;" style="ellipse;whiteSpace=wrap;html=1;fontSize=14;" parent="vyuLjJ7TGY56v_wTqaDA-136" vertex="1">
          <mxGeometry x="180" y="2.5" width="90" height="35" as="geometry" />
        </mxCell>
        <mxCell id="vyuLjJ7TGY56v_wTqaDA-127" value="&lt;div&gt;&lt;span class=&quot;text-sm px-1 rounded-sm !font-mono bg-orange-300/15 text-orange-500 dark:text-orange-300&quot;&gt;Статус Заказа&lt;/span&gt;&lt;/div&gt;" style="ellipse;whiteSpace=wrap;html=1;fontSize=14;" parent="vyuLjJ7TGY56v_wTqaDA-136" vertex="1">
          <mxGeometry x="250" y="27.5" width="87" height="40" as="geometry" />
        </mxCell>
        <mxCell id="vyuLjJ7TGY56v_wTqaDA-128" value="&lt;div&gt;&lt;span class=&quot;text-sm px-1 rounded-sm !font-mono bg-orange-300/15 text-orange-500 dark:text-orange-300&quot;&gt;Дата Доставки&lt;/span&gt;&lt;/div&gt;" style="ellipse;whiteSpace=wrap;html=1;fontSize=14;" parent="vyuLjJ7TGY56v_wTqaDA-136" vertex="1">
          <mxGeometry x="260" y="72.5" width="77" height="45" as="geometry" />
        </mxCell>
        <mxCell id="vyuLjJ7TGY56v_wTqaDA-129" style="rounded=0;orthogonalLoop=1;jettySize=auto;html=1;entryX=0.853;entryY=-0.018;entryDx=0;entryDy=0;entryPerimeter=0;" parent="vyuLjJ7TGY56v_wTqaDA-136" source="vyuLjJ7TGY56v_wTqaDA-128" target="vyuLjJ7TGY56v_wTqaDA-7" edge="1">
          <mxGeometry relative="1" as="geometry" />
        </mxCell>
        <mxCell id="vyuLjJ7TGY56v_wTqaDA-131" style="rounded=0;orthogonalLoop=1;jettySize=auto;html=1;entryX=0.692;entryY=-0.048;entryDx=0;entryDy=0;entryPerimeter=0;" parent="vyuLjJ7TGY56v_wTqaDA-136" source="vyuLjJ7TGY56v_wTqaDA-127" target="vyuLjJ7TGY56v_wTqaDA-7" edge="1">
          <mxGeometry relative="1" as="geometry" />
        </mxCell>
        <mxCell id="vyuLjJ7TGY56v_wTqaDA-133" style="rounded=0;orthogonalLoop=1;jettySize=auto;html=1;entryX=0.373;entryY=-0.008;entryDx=0;entryDy=0;entryPerimeter=0;" parent="vyuLjJ7TGY56v_wTqaDA-136" source="vyuLjJ7TGY56v_wTqaDA-125" target="vyuLjJ7TGY56v_wTqaDA-7" edge="1">
          <mxGeometry relative="1" as="geometry" />
        </mxCell>
        <mxCell id="vyuLjJ7TGY56v_wTqaDA-135" style="rounded=0;orthogonalLoop=1;jettySize=auto;html=1;entryX=0.156;entryY=-0.028;entryDx=0;entryDy=0;entryPerimeter=0;" parent="vyuLjJ7TGY56v_wTqaDA-136" source="vyuLjJ7TGY56v_wTqaDA-123" target="vyuLjJ7TGY56v_wTqaDA-7" edge="1">
          <mxGeometry relative="1" as="geometry" />
        </mxCell>
        <mxCell id="vyuLjJ7TGY56v_wTqaDA-158" value="" style="group" parent="1" vertex="1" connectable="0">
          <mxGeometry x="-1150" y="120" width="460" height="296.25" as="geometry" />
        </mxCell>
        <mxCell id="vyuLjJ7TGY56v_wTqaDA-11" value="&lt;div&gt;Заказчик&lt;/div&gt;" style="rounded=0;whiteSpace=wrap;html=1;" parent="vyuLjJ7TGY56v_wTqaDA-158" vertex="1">
          <mxGeometry x="210" y="237.5" width="120" height="60" as="geometry" />
        </mxCell>
        <mxCell id="vyuLjJ7TGY56v_wTqaDA-137" value="&lt;div&gt;&lt;span class=&quot;text-sm px-1 rounded-sm !font-mono bg-orange-300/15 text-orange-500 dark:text-orange-300&quot;&gt;IDЗаказчика&lt;/span&gt;&lt;/div&gt;" style="ellipse;whiteSpace=wrap;html=1;fontSize=14;" parent="vyuLjJ7TGY56v_wTqaDA-158" vertex="1">
          <mxGeometry y="116.25" width="90" height="35" as="geometry" />
        </mxCell>
        <mxCell id="vyuLjJ7TGY56v_wTqaDA-138" value="&lt;div&gt;&lt;span class=&quot;text-sm px-1 rounded-sm !font-mono bg-orange-300/15 text-orange-500 dark:text-orange-300&quot;&gt;Тип Заказчика&lt;/span&gt;&lt;/div&gt;" style="ellipse;whiteSpace=wrap;html=1;fontSize=14;" parent="vyuLjJ7TGY56v_wTqaDA-158" vertex="1">
          <mxGeometry x="20" y="81.25" width="90" height="35" as="geometry" />
        </mxCell>
        <mxCell id="vyuLjJ7TGY56v_wTqaDA-150" style="rounded=0;orthogonalLoop=1;jettySize=auto;html=1;entryX=0.25;entryY=0;entryDx=0;entryDy=0;" parent="vyuLjJ7TGY56v_wTqaDA-158" source="vyuLjJ7TGY56v_wTqaDA-139" target="vyuLjJ7TGY56v_wTqaDA-11" edge="1">
          <mxGeometry relative="1" as="geometry" />
        </mxCell>
        <mxCell id="vyuLjJ7TGY56v_wTqaDA-139" value="&lt;div&gt;&lt;span class=&quot;text-sm px-1 rounded-sm !font-mono bg-orange-300/15 text-orange-500 dark:text-orange-300&quot;&gt;ФИО&lt;/span&gt;&lt;/div&gt;" style="ellipse;whiteSpace=wrap;html=1;fontSize=14;" parent="vyuLjJ7TGY56v_wTqaDA-158" vertex="1">
          <mxGeometry x="70" y="58.75" width="50" height="20" as="geometry" />
        </mxCell>
        <mxCell id="vyuLjJ7TGY56v_wTqaDA-140" value="&lt;div&gt;&lt;span class=&quot;text-sm px-1 rounded-sm !font-mono bg-orange-300/15 text-orange-500 dark:text-orange-300&quot;&gt;Номер Телефона&lt;/span&gt;&lt;/div&gt;" style="ellipse;whiteSpace=wrap;html=1;fontSize=14;" parent="vyuLjJ7TGY56v_wTqaDA-158" vertex="1">
          <mxGeometry x="150" width="90" height="35" as="geometry" />
        </mxCell>
        <mxCell id="vyuLjJ7TGY56v_wTqaDA-141" value="&lt;div&gt;&lt;span class=&quot;text-sm px-1 rounded-sm !font-mono bg-orange-300/15 text-orange-500 dark:text-orange-300&quot;&gt;Email&lt;/span&gt;&lt;/div&gt;" style="ellipse;whiteSpace=wrap;html=1;fontSize=14;" parent="vyuLjJ7TGY56v_wTqaDA-158" vertex="1">
          <mxGeometry x="110" y="27.5" width="40" height="25" as="geometry" />
        </mxCell>
        <mxCell id="vyuLjJ7TGY56v_wTqaDA-153" style="rounded=0;orthogonalLoop=1;jettySize=auto;html=1;entryX=0.5;entryY=0;entryDx=0;entryDy=0;" parent="vyuLjJ7TGY56v_wTqaDA-158" source="vyuLjJ7TGY56v_wTqaDA-142" target="vyuLjJ7TGY56v_wTqaDA-11" edge="1">
          <mxGeometry relative="1" as="geometry" />
        </mxCell>
        <mxCell id="vyuLjJ7TGY56v_wTqaDA-142" value="&lt;div&gt;&lt;span class=&quot;text-sm px-1 rounded-sm !font-mono bg-orange-300/15 text-orange-500 dark:text-orange-300&quot;&gt;Адрес Доставки&lt;/span&gt;&lt;/div&gt;" style="ellipse;whiteSpace=wrap;html=1;fontSize=14;" parent="vyuLjJ7TGY56v_wTqaDA-158" vertex="1">
          <mxGeometry x="250" y="3.75" width="90" height="40" as="geometry" />
        </mxCell>
        <mxCell id="vyuLjJ7TGY56v_wTqaDA-143" value="&lt;div&gt;&lt;span class=&quot;text-sm px-1 rounded-sm !font-mono bg-orange-300/15 text-orange-500 dark:text-orange-300&quot;&gt;Серия Номер Паспорта&lt;/span&gt;&lt;/div&gt;" style="ellipse;whiteSpace=wrap;html=1;fontSize=14;" parent="vyuLjJ7TGY56v_wTqaDA-158" vertex="1">
          <mxGeometry x="340" y="28.75" width="100" height="50" as="geometry" />
        </mxCell>
        <mxCell id="vyuLjJ7TGY56v_wTqaDA-144" value="&lt;div&gt;&lt;span class=&quot;text-sm px-1 rounded-sm !font-mono bg-orange-300/15 text-orange-500 dark:text-orange-300&quot;&gt;ИНН&lt;/span&gt;&lt;/div&gt;" style="ellipse;whiteSpace=wrap;html=1;fontSize=14;" parent="vyuLjJ7TGY56v_wTqaDA-158" vertex="1">
          <mxGeometry x="370" y="88.75" width="40" height="25" as="geometry" />
        </mxCell>
        <mxCell id="vyuLjJ7TGY56v_wTqaDA-145" value="&lt;div&gt;&lt;span class=&quot;text-sm px-1 rounded-sm !font-mono bg-orange-300/15 text-orange-500 dark:text-orange-300&quot;&gt;Название&lt;/span&gt;&lt;/div&gt;" style="ellipse;whiteSpace=wrap;html=1;fontSize=14;" parent="vyuLjJ7TGY56v_wTqaDA-158" vertex="1">
          <mxGeometry x="390" y="128.75" width="70" height="22.5" as="geometry" />
        </mxCell>
        <mxCell id="vyuLjJ7TGY56v_wTqaDA-148" style="rounded=0;orthogonalLoop=1;jettySize=auto;html=1;entryX=0.06;entryY=-0.033;entryDx=0;entryDy=0;entryPerimeter=0;" parent="vyuLjJ7TGY56v_wTqaDA-158" source="vyuLjJ7TGY56v_wTqaDA-137" target="vyuLjJ7TGY56v_wTqaDA-11" edge="1">
          <mxGeometry relative="1" as="geometry" />
        </mxCell>
        <mxCell id="vyuLjJ7TGY56v_wTqaDA-149" style="rounded=0;orthogonalLoop=1;jettySize=auto;html=1;entryX=0.175;entryY=-0.044;entryDx=0;entryDy=0;entryPerimeter=0;" parent="vyuLjJ7TGY56v_wTqaDA-158" source="vyuLjJ7TGY56v_wTqaDA-138" target="vyuLjJ7TGY56v_wTqaDA-11" edge="1">
          <mxGeometry relative="1" as="geometry" />
        </mxCell>
        <mxCell id="vyuLjJ7TGY56v_wTqaDA-151" style="rounded=0;orthogonalLoop=1;jettySize=auto;html=1;entryX=0.342;entryY=-0.044;entryDx=0;entryDy=0;entryPerimeter=0;" parent="vyuLjJ7TGY56v_wTqaDA-158" source="vyuLjJ7TGY56v_wTqaDA-141" target="vyuLjJ7TGY56v_wTqaDA-11" edge="1">
          <mxGeometry relative="1" as="geometry" />
        </mxCell>
        <mxCell id="vyuLjJ7TGY56v_wTqaDA-152" style="rounded=0;orthogonalLoop=1;jettySize=auto;html=1;entryX=0.425;entryY=-0.033;entryDx=0;entryDy=0;entryPerimeter=0;" parent="vyuLjJ7TGY56v_wTqaDA-158" source="vyuLjJ7TGY56v_wTqaDA-140" target="vyuLjJ7TGY56v_wTqaDA-11" edge="1">
          <mxGeometry relative="1" as="geometry" />
        </mxCell>
        <mxCell id="vyuLjJ7TGY56v_wTqaDA-154" style="rounded=0;orthogonalLoop=1;jettySize=auto;html=1;entryX=0.566;entryY=-0.013;entryDx=0;entryDy=0;entryPerimeter=0;" parent="vyuLjJ7TGY56v_wTqaDA-158" source="vyuLjJ7TGY56v_wTqaDA-143" target="vyuLjJ7TGY56v_wTqaDA-11" edge="1">
          <mxGeometry relative="1" as="geometry" />
        </mxCell>
        <mxCell id="vyuLjJ7TGY56v_wTqaDA-156" style="rounded=0;orthogonalLoop=1;jettySize=auto;html=1;entryX=0.67;entryY=-0.023;entryDx=0;entryDy=0;entryPerimeter=0;" parent="vyuLjJ7TGY56v_wTqaDA-158" source="vyuLjJ7TGY56v_wTqaDA-144" target="vyuLjJ7TGY56v_wTqaDA-11" edge="1">
          <mxGeometry relative="1" as="geometry" />
        </mxCell>
        <mxCell id="vyuLjJ7TGY56v_wTqaDA-157" style="rounded=0;orthogonalLoop=1;jettySize=auto;html=1;entryX=0.784;entryY=-0.023;entryDx=0;entryDy=0;entryPerimeter=0;" parent="vyuLjJ7TGY56v_wTqaDA-158" source="vyuLjJ7TGY56v_wTqaDA-145" target="vyuLjJ7TGY56v_wTqaDA-11" edge="1">
          <mxGeometry relative="1" as="geometry" />
        </mxCell>
        <mxCell id="MqEUHqWslx8bEp3nNImV-1" value="" style="group" vertex="1" connectable="0" parent="1">
          <mxGeometry x="-100" y="487.25" width="483" height="245" as="geometry" />
        </mxCell>
        <mxCell id="vyuLjJ7TGY56v_wTqaDA-20" value="Пользователь" style="rounded=0;whiteSpace=wrap;html=1;" parent="MqEUHqWslx8bEp3nNImV-1" vertex="1">
          <mxGeometry x="180" y="185" width="120" height="60" as="geometry" />
        </mxCell>
        <mxCell id="vyuLjJ7TGY56v_wTqaDA-75" value="&lt;div&gt;&lt;span class=&quot;text-sm px-1 rounded-sm !font-mono bg-orange-300/15 text-orange-500 dark:text-orange-300&quot;&gt;IDПользователя&lt;/span&gt;&lt;/div&gt;" style="ellipse;whiteSpace=wrap;html=1;fontSize=14;" parent="MqEUHqWslx8bEp3nNImV-1" vertex="1">
          <mxGeometry y="100" width="103" height="65" as="geometry" />
        </mxCell>
        <mxCell id="vyuLjJ7TGY56v_wTqaDA-76" value="&lt;div&gt;&lt;span class=&quot;text-sm px-1 rounded-sm !font-mono bg-orange-300/15 text-orange-500 dark:text-orange-300&quot;&gt;ФИО&lt;/span&gt;&lt;/div&gt;" style="ellipse;whiteSpace=wrap;html=1;fontSize=14;" parent="MqEUHqWslx8bEp3nNImV-1" vertex="1">
          <mxGeometry x="40" y="35" width="103" height="65" as="geometry" />
        </mxCell>
        <mxCell id="vyuLjJ7TGY56v_wTqaDA-77" value="&lt;div&gt;&lt;span class=&quot;text-sm px-1 rounded-sm !font-mono bg-orange-300/15 text-orange-500 dark:text-orange-300&quot;&gt;Роль&lt;/span&gt;&lt;/div&gt;" style="ellipse;whiteSpace=wrap;html=1;fontSize=14;" parent="MqEUHqWslx8bEp3nNImV-1" vertex="1">
          <mxGeometry x="130" width="103" height="65" as="geometry" />
        </mxCell>
        <mxCell id="vyuLjJ7TGY56v_wTqaDA-78" value="&lt;div&gt;&lt;span class=&quot;text-sm px-1 rounded-sm !font-mono bg-orange-300/15 text-orange-500 dark:text-orange-300&quot;&gt;Логин&lt;/span&gt;&lt;/div&gt;" style="ellipse;whiteSpace=wrap;html=1;fontSize=14;" parent="MqEUHqWslx8bEp3nNImV-1" vertex="1">
          <mxGeometry x="240" width="103" height="65" as="geometry" />
        </mxCell>
        <mxCell id="vyuLjJ7TGY56v_wTqaDA-82" style="rounded=0;orthogonalLoop=1;jettySize=auto;html=1;entryX=0.75;entryY=0;entryDx=0;entryDy=0;" parent="MqEUHqWslx8bEp3nNImV-1" source="vyuLjJ7TGY56v_wTqaDA-79" target="vyuLjJ7TGY56v_wTqaDA-20" edge="1">
          <mxGeometry relative="1" as="geometry" />
        </mxCell>
        <mxCell id="vyuLjJ7TGY56v_wTqaDA-79" value="&lt;div&gt;&lt;span class=&quot;text-sm px-1 rounded-sm !font-mono bg-orange-300/15 text-orange-500 dark:text-orange-300&quot;&gt;Пароль&lt;/span&gt;&lt;/div&gt;" style="ellipse;whiteSpace=wrap;html=1;fontSize=14;" parent="MqEUHqWslx8bEp3nNImV-1" vertex="1">
          <mxGeometry x="340" y="35" width="103" height="65" as="geometry" />
        </mxCell>
        <mxCell id="vyuLjJ7TGY56v_wTqaDA-80" value="&lt;div&gt;&lt;span class=&quot;text-sm px-1 rounded-sm !font-mono bg-orange-300/15 text-orange-500 dark:text-orange-300&quot;&gt;Email&lt;/span&gt;&lt;/div&gt;" style="ellipse;whiteSpace=wrap;html=1;fontSize=14;" parent="MqEUHqWslx8bEp3nNImV-1" vertex="1">
          <mxGeometry x="380" y="100" width="103" height="65" as="geometry" />
        </mxCell>
        <mxCell id="vyuLjJ7TGY56v_wTqaDA-81" style="rounded=0;orthogonalLoop=1;jettySize=auto;html=1;entryX=0.875;entryY=-0.017;entryDx=0;entryDy=0;entryPerimeter=0;" parent="MqEUHqWslx8bEp3nNImV-1" source="vyuLjJ7TGY56v_wTqaDA-80" target="vyuLjJ7TGY56v_wTqaDA-20" edge="1">
          <mxGeometry relative="1" as="geometry" />
        </mxCell>
        <mxCell id="vyuLjJ7TGY56v_wTqaDA-84" style="rounded=0;orthogonalLoop=1;jettySize=auto;html=1;entryX=0.669;entryY=-0.033;entryDx=0;entryDy=0;entryPerimeter=0;" parent="MqEUHqWslx8bEp3nNImV-1" source="vyuLjJ7TGY56v_wTqaDA-78" target="vyuLjJ7TGY56v_wTqaDA-20" edge="1">
          <mxGeometry relative="1" as="geometry" />
        </mxCell>
        <mxCell id="vyuLjJ7TGY56v_wTqaDA-86" style="rounded=0;orthogonalLoop=1;jettySize=auto;html=1;entryX=0.582;entryY=-0.033;entryDx=0;entryDy=0;entryPerimeter=0;" parent="MqEUHqWslx8bEp3nNImV-1" source="vyuLjJ7TGY56v_wTqaDA-77" target="vyuLjJ7TGY56v_wTqaDA-20" edge="1">
          <mxGeometry relative="1" as="geometry" />
        </mxCell>
        <mxCell id="vyuLjJ7TGY56v_wTqaDA-87" style="rounded=0;orthogonalLoop=1;jettySize=auto;html=1;entryX=0.074;entryY=-0.002;entryDx=0;entryDy=0;entryPerimeter=0;" parent="MqEUHqWslx8bEp3nNImV-1" source="vyuLjJ7TGY56v_wTqaDA-75" target="vyuLjJ7TGY56v_wTqaDA-20" edge="1">
          <mxGeometry relative="1" as="geometry" />
        </mxCell>
        <mxCell id="vyuLjJ7TGY56v_wTqaDA-88" style="rounded=0;orthogonalLoop=1;jettySize=auto;html=1;entryX=0.34;entryY=-0.002;entryDx=0;entryDy=0;entryPerimeter=0;" parent="MqEUHqWslx8bEp3nNImV-1" source="vyuLjJ7TGY56v_wTqaDA-76" target="vyuLjJ7TGY56v_wTqaDA-20" edge="1">
          <mxGeometry relative="1" as="geometry" />
        </mxCell>
        <mxCell id="MqEUHqWslx8bEp3nNImV-3" style="edgeStyle=orthogonalEdgeStyle;rounded=0;orthogonalLoop=1;jettySize=auto;html=1;entryX=1;entryY=0.5;entryDx=0;entryDy=0;startArrow=ERone;startFill=0;endArrow=ERone;endFill=0;" edge="1" parent="1" source="vyuLjJ7TGY56v_wTqaDA-20" target="vyuLjJ7TGY56v_wTqaDA-7">
          <mxGeometry relative="1" as="geometry" />
        </mxCell>
        <mxCell id="MqEUHqWslx8bEp3nNImV-4" style="edgeStyle=orthogonalEdgeStyle;rounded=0;orthogonalLoop=1;jettySize=auto;html=1;entryX=1;entryY=0.5;entryDx=0;entryDy=0;startArrow=ERone;startFill=0;endArrow=ERone;endFill=0;exitX=1;exitY=0.5;exitDx=0;exitDy=0;jumpStyle=arc;" edge="1" parent="1" source="vyuLjJ7TGY56v_wTqaDA-13" target="vyuLjJ7TGY56v_wTqaDA-7">
          <mxGeometry relative="1" as="geometry">
            <mxPoint x="80" y="712" as="sourcePoint" />
            <mxPoint x="-370" y="388" as="targetPoint" />
            <Array as="points">
              <mxPoint x="-150" y="125" />
              <mxPoint x="-150" y="378" />
            </Array>
          </mxGeometry>
        </mxCell>
      </root>
    </mxGraphModel>
  </diagram>
</mxfile>
